<svg xmlns="http://www.w3.org/2000/svg" viewBox="0 0 920 560" width="920" height="560">
<rect x="0" y="0" width="920" height="560" rx="18" fill="#FFFDF8"/>
  <text x="330" y="52" font-family="Inter, Segoe UI, Arial, sans-serif" font-size="19" font-weight="700" fill="#3B2752" text-anchor="middle">HDB flat</text><text x="560" y="52" font-family="Inter, Segoe UI, Arial, sans-serif" font-size="19" font-weight="700" fill="#3B2752" text-anchor="middle">Condo</text><text x="790" y="52" font-family="Inter, Segoe UI, Arial, sans-serif" font-size="19" font-weight="700" fill="#3B2752" text-anchor="middle">Landed house</text>
  <text x="30" y="112" font-family="Inter, Segoe UI, Arial, sans-serif" font-size="18" font-weight="600" fill="#2A2233">Take down a</text>
  <text x="30" y="134" font-family="Inter, Segoe UI, Arial, sans-serif" font-size="18" font-weight="600" fill="#2A2233">non-structural wall</text>
  <rect x="222" y="86" width="216" height="66" rx="12" fill="#EDE6F3" stroke="#6B4F8A" stroke-width="1.5"/>
  <rect x="241" y="108" width="18" height="22" rx="2" fill="#6B4F8A"/><path d="M245 114h10M245 119h10M245 124h6" stroke="#FFFFFF" stroke-width="2"/>
  <text x="270" y="125" font-family="Inter, Segoe UI, Arial, sans-serif" font-size="16.5" font-weight="600" fill="#3B2752">HDB permit</text><rect x="452" y="86" width="216" height="66" rx="12" fill="#FCF3D9" stroke="#E3BE5E" stroke-width="1.5"/>
  <circle cx="480" cy="119" r="11" fill="#E3BE5E"/><text x="480" y="124" font-family="Inter, Segoe UI, Arial, sans-serif" font-size="15" font-weight="700" fill="#FFFFFF" text-anchor="middle">?</text>
  <text x="500" y="125" font-family="Inter, Segoe UI, Arial, sans-serif" font-size="16.5" font-weight="600" fill="#6B4E0A">Check by-laws</text><rect x="682" y="86" width="216" height="66" rx="12" fill="#D7F0E4" stroke="#5FB592" stroke-width="1.5"/>
  <circle cx="710" cy="119" r="11" fill="#5FB592"/><path d="M705 119l3.5 3.5 6.5-7" stroke="#FFFFFF" stroke-width="2.6" fill="none" stroke-linecap="round"/>
  <text x="730" y="125" font-family="Inter, Segoe UI, Arial, sans-serif" font-size="16.5" font-weight="600" fill="#1F5A43">No approval</text>
  <text x="30" y="198" font-family="Inter, Segoe UI, Arial, sans-serif" font-size="18" font-weight="600" fill="#2A2233">Replace floor</text>
  <text x="30" y="220" font-family="Inter, Segoe UI, Arial, sans-serif" font-size="18" font-weight="600" fill="#2A2233">or wall tiles</text>
  <rect x="222" y="172" width="216" height="66" rx="12" fill="#EDE6F3" stroke="#6B4F8A" stroke-width="1.5"/>
  <rect x="241" y="194" width="18" height="22" rx="2" fill="#6B4F8A"/><path d="M245 200h10M245 205h10M245 210h6" stroke="#FFFFFF" stroke-width="2"/>
  <text x="270" y="211" font-family="Inter, Segoe UI, Arial, sans-serif" font-size="16.5" font-weight="600" fill="#3B2752">HDB permit</text><rect x="452" y="172" width="216" height="66" rx="12" fill="#FCF3D9" stroke="#E3BE5E" stroke-width="1.5"/>
  <circle cx="480" cy="205" r="11" fill="#E3BE5E"/><text x="480" y="210" font-family="Inter, Segoe UI, Arial, sans-serif" font-size="15" font-weight="700" fill="#FFFFFF" text-anchor="middle">?</text>
  <text x="500" y="211" font-family="Inter, Segoe UI, Arial, sans-serif" font-size="16.5" font-weight="600" fill="#6B4E0A">Check by-laws</text><rect x="682" y="172" width="216" height="66" rx="12" fill="#D7F0E4" stroke="#5FB592" stroke-width="1.5"/>
  <circle cx="710" cy="205" r="11" fill="#5FB592"/><path d="M705 205l3.5 3.5 6.5-7" stroke="#FFFFFF" stroke-width="2.6" fill="none" stroke-linecap="round"/>
  <text x="730" y="211" font-family="Inter, Segoe UI, Arial, sans-serif" font-size="16.5" font-weight="600" fill="#1F5A43">No approval</text>
  <text x="30" y="284" font-family="Inter, Segoe UI, Arial, sans-serif" font-size="18" font-weight="600" fill="#2A2233">Replace</text>
  <text x="30" y="306" font-family="Inter, Segoe UI, Arial, sans-serif" font-size="18" font-weight="600" fill="#2A2233">windows</text>
  <rect x="222" y="258" width="216" height="66" rx="12" fill="#EDE6F3" stroke="#6B4F8A" stroke-width="1.5"/>
  <rect x="241" y="280" width="18" height="22" rx="2" fill="#6B4F8A"/><path d="M245 286h10M245 291h10M245 296h6" stroke="#FFFFFF" stroke-width="2"/>
  <text x="270" y="297" font-family="Inter, Segoe UI, Arial, sans-serif" font-size="16.5" font-weight="600" fill="#3B2752">HDB permit</text><rect x="452" y="258" width="216" height="66" rx="12" fill="#EDE6F3" stroke="#6B4F8A" stroke-width="1.5"/>
  <rect x="471" y="280" width="18" height="22" rx="2" fill="#6B4F8A"/><path d="M475 286h10M475 291h10M475 296h6" stroke="#FFFFFF" stroke-width="2"/>
  <text x="500" y="297" font-family="Inter, Segoe UI, Arial, sans-serif" font-size="16.5" font-weight="600" fill="#3B2752">MCST approval</text><rect x="682" y="258" width="216" height="66" rx="12" fill="#D7F0E4" stroke="#5FB592" stroke-width="1.5"/>
  <circle cx="710" cy="291" r="11" fill="#5FB592"/><path d="M705 291l3.5 3.5 6.5-7" stroke="#FFFFFF" stroke-width="2.6" fill="none" stroke-linecap="round"/>
  <text x="730" y="297" font-family="Inter, Segoe UI, Arial, sans-serif" font-size="16.5" font-weight="600" fill="#1F5A43">None, if same place</text>
  <text x="30" y="370" font-family="Inter, Segoe UI, Arial, sans-serif" font-size="18" font-weight="600" fill="#2A2233">Alter a structural</text>
  <text x="30" y="392" font-family="Inter, Segoe UI, Arial, sans-serif" font-size="18" font-weight="600" fill="#2A2233">wall, column or beam</text>
  <rect x="222" y="344" width="216" height="66" rx="12" fill="#FBE3D8" stroke="#D9805C" stroke-width="1.5"/>
  <circle cx="250" cy="377" r="11" fill="#D9805C"/><path d="M244 377h12" stroke="#FFFFFF" stroke-width="3" stroke-linecap="round"/>
  <text x="270" y="383" font-family="Inter, Segoe UI, Arial, sans-serif" font-size="16.5" font-weight="600" fill="#8A3A1C">Not allowed</text><rect x="452" y="344" width="216" height="66" rx="12" fill="#EDE6F3" stroke="#6B4F8A" stroke-width="1.5"/>
  <rect x="471" y="366" width="18" height="22" rx="2" fill="#6B4F8A"/><path d="M475 372h10M475 377h10M475 382h6" stroke="#FFFFFF" stroke-width="2"/>
  <text x="500" y="383" font-family="Inter, Segoe UI, Arial, sans-serif" font-size="16.5" font-weight="600" fill="#3B2752">Engineer + BCA</text><rect x="682" y="344" width="216" height="66" rx="12" fill="#EDE6F3" stroke="#6B4F8A" stroke-width="1.5"/>
  <rect x="701" y="366" width="18" height="22" rx="2" fill="#6B4F8A"/><path d="M705 372h10M705 377h10M705 382h6" stroke="#FFFFFF" stroke-width="2"/>
  <text x="730" y="383" font-family="Inter, Segoe UI, Arial, sans-serif" font-size="16.5" font-weight="600" fill="#3B2752">Engineer + BCA</text>
  <text x="30" y="456" font-family="Inter, Segoe UI, Arial, sans-serif" font-size="18" font-weight="600" fill="#2A2233">Enclose an</text>
  <text x="30" y="478" font-family="Inter, Segoe UI, Arial, sans-serif" font-size="18" font-weight="600" fill="#2A2233">open balcony</text>
  <rect x="222" y="430" width="216" height="66" rx="12" fill="#FBE3D8" stroke="#D9805C" stroke-width="1.5"/>
  <circle cx="250" cy="463" r="11" fill="#D9805C"/><path d="M244 463h12" stroke="#FFFFFF" stroke-width="3" stroke-linecap="round"/>
  <text x="270" y="469" font-family="Inter, Segoe UI, Arial, sans-serif" font-size="16.5" font-weight="600" fill="#8A3A1C">Not allowed</text><rect x="452" y="430" width="216" height="66" rx="12" fill="#FBE3D8" stroke="#D9805C" stroke-width="1.5"/>
  <circle cx="480" cy="463" r="11" fill="#D9805C"/><path d="M474 463h12" stroke="#FFFFFF" stroke-width="3" stroke-linecap="round"/>
  <text x="500" y="469" font-family="Inter, Segoe UI, Arial, sans-serif" font-size="16.5" font-weight="600" fill="#8A3A1C">Not allowed (URA)</text><rect x="682" y="430" width="216" height="66" rx="12" fill="#EDE6F3" stroke="#6B4F8A" stroke-width="1.5"/>
  <rect x="701" y="452" width="18" height="22" rx="2" fill="#6B4F8A"/><path d="M705 458h10M705 463h10M705 468h6" stroke="#FFFFFF" stroke-width="2"/>
  <text x="730" y="469" font-family="Inter, Segoe UI, Arial, sans-serif" font-size="16.5" font-weight="600" fill="#3B2752">URA permission</text>
  <g transform="translate(30 524)">
    <circle cx="10" cy="0" r="11" fill="#5FB592"/><path d="M5 0l3.5 3.5 6.5-7" stroke="#FFFFFF" stroke-width="2.6" fill="none" stroke-linecap="round"/><text x="30" y="5" font-family="Inter, Segoe UI, Arial, sans-serif" font-size="14" fill="#4E4558">No approval needed</text>
    <rect x="211" y="-11" width="18" height="22" rx="2" fill="#6B4F8A"/><path d="M215 -5h10M215 0h10M215 5h6" stroke="#FFFFFF" stroke-width="2"/><text x="240" y="5" font-family="Inter, Segoe UI, Arial, sans-serif" font-size="14" fill="#4E4558">Approval needed first</text>
    <circle cx="430" cy="0" r="11" fill="#E3BE5E"/><text x="430" y="5" font-family="Inter, Segoe UI, Arial, sans-serif" font-size="15" font-weight="700" fill="#FFFFFF" text-anchor="middle">?</text><text x="450" y="5" font-family="Inter, Segoe UI, Arial, sans-serif" font-size="14" fill="#4E4558">Depends on your by-laws</text>
    <circle cx="660" cy="0" r="11" fill="#D9805C"/><path d="M654 0h12" stroke="#FFFFFF" stroke-width="3" stroke-linecap="round"/><text x="680" y="5" font-family="Inter, Segoe UI, Arial, sans-serif" font-size="14" fill="#4E4558">Not allowed</text>
  </g>
</svg>
