<svg xmlns="http://www.w3.org/2000/svg" viewBox="0 0 640 480" width="640" height="480">
<path d="M30 330C10 170 150 50 330 46c190-4 300 96 290 250-8 120-120 160-300 160C150 456 44 420 30 330z" fill="#EDE6F3"/>
  <circle cx="560" cy="70" r="24" fill="#F5D98B"/>
  <g fill="#FFFFFF"><ellipse cx="110" cy="70" rx="36" ry="11"/><ellipse cx="136" cy="63" rx="22" ry="10"/></g>
  <!-- the flat: roof slab, two floors of rooms -->
  <rect x="70" y="96" width="500" height="14" rx="3" fill="#3B2752"/>
  <rect x="78" y="110" width="484" height="300" fill="#F6F0E8"/>
  <rect x="78" y="250" width="484" height="10" fill="#E0CFA9"/>
  <rect x="300" y="110" width="10" height="140" fill="#E0CFA9"/>
  <rect x="380" y="260" width="10" height="150" fill="#E0CFA9"/>
  <rect x="70" y="404" width="500" height="12" rx="3" fill="#3B2752"/>
  <!-- upstairs left: bathroom being tiled -->
  <rect x="86" y="118" width="216" height="130" fill="#DCEBF0"/><path d="M110 118v130" stroke="#BBD3DC" stroke-width="1.5"/><path d="M134 118v130" stroke="#BBD3DC" stroke-width="1.5"/><path d="M158 118v130" stroke="#BBD3DC" stroke-width="1.5"/><path d="M182 118v130" stroke="#BBD3DC" stroke-width="1.5"/><path d="M206 118v130" stroke="#BBD3DC" stroke-width="1.5"/><path d="M230 118v130" stroke="#BBD3DC" stroke-width="1.5"/><path d="M254 118v130" stroke="#BBD3DC" stroke-width="1.5"/><path d="M278 118v130" stroke="#BBD3DC" stroke-width="1.5"/><path d="M86 144h216" stroke="#BBD3DC" stroke-width="1.5"/><path d="M86 170h216" stroke="#BBD3DC" stroke-width="1.5"/><path d="M86 196h216" stroke="#BBD3DC" stroke-width="1.5"/><path d="M86 222h216" stroke="#BBD3DC" stroke-width="1.5"/>
  <rect x="86" y="118" width="96" height="78" fill="#F6F0E8"/>
  <path d="M86 196h96" stroke="#BBD3DC" stroke-width="2"/>
  <rect x="210" y="196" width="64" height="40" rx="8" fill="#FFFFFF"/>
  <rect x="206" y="190" width="72" height="10" rx="4" fill="#ECEFF1"/>
  <rect x="236" y="166" width="6" height="26" rx="3" fill="#59606E"/>
  <path d="M239 166c0-10 14-10 16-2" stroke="#59606E" stroke-width="5" fill="none" stroke-linecap="round"/>
  <g transform="translate(-4 0)">
  <ellipse cx="150" cy="250" rx="30" ry="4.5" fill="#DCD2E6"/>
  <rect x="138" y="202" width="10" height="44" rx="4" fill="#59606E"/>
  <rect x="152" y="202" width="10" height="44" rx="4" fill="#59606E"/>
  <rect x="134" y="242" width="16" height="7" rx="3" fill="#2A2233"/>
  <rect x="151" y="242" width="16" height="7" rx="3" fill="#2A2233"/>
  <rect x="132" y="156" width="36" height="52" rx="13" fill="#5FB592"/>
  <rect x="123" y="164" width="10" height="34" rx="5" fill="#5FB592"/>
           <path d="M168 168l22-18" stroke="#5FB592" stroke-width="10" stroke-linecap="round"/>
           <circle cx="192" cy="148" r="5" fill="#B97B52"/>
           <path d="M188 146l14-10 6 6-14 10z" fill="#7F7887"/>
  <circle cx="150" cy="142" r="14" fill="#B97B52"/>
  <path d="M134 139a16 16 0 0 1 32 0z" fill="#F5D98B"/><rect x="131" y="137" width="38" height="5" rx="2.5" fill="#E3BE5E"/></g>
  <!-- upstairs right: bedroom with ladder and paint -->
  <rect x="318" y="118" width="236" height="132" fill="#D7F0E4"/>
  <rect x="318" y="118" width="120" height="132" fill="#F6F0E8"/>
  <path d="M438 118v132" stroke="#8FD3B6" stroke-width="3" stroke-dasharray="6 5"/>
  <rect x="470" y="140" width="56" height="44" rx="3" fill="#DCE9F0"/>
  <path d="M498 140v44M470 162h56" stroke="#FFFFFF" stroke-width="4"/>
  <path d="M360 248l31.360000000000003 -112M394 248l-5.6000000000000005 -112" stroke="#C4935A" stroke-width="6" stroke-linecap="round"/>
  <path d="M366.272 225.6h26.608" stroke="#D9A86C" stroke-width="5" stroke-linecap="round"/><path d="M373.1712 200.96h18.4768" stroke="#D9A86C" stroke-width="5" stroke-linecap="round"/><path d="M380.0704 176.32h10.345599999999997" stroke="#D9A86C" stroke-width="5" stroke-linecap="round"/><path d="M386.9696 151.68h2.2144000000000013" stroke="#D9A86C" stroke-width="5" stroke-linecap="round"/>
  <rect x="412" y="220" width="26" height="28" rx="3" fill="#A59FAB"/>
  <rect x="412" y="228" width="26" height="12" fill="#8FD3B6"/>
  <rect x="410" y="216" width="30" height="6" rx="2" fill="#7F7887"/>
  <rect x="444" y="220" width="26" height="28" rx="3" fill="#A59FAB"/>
  <rect x="444" y="228" width="26" height="12" fill="#CDBFDD"/>
  <rect x="442" y="216" width="30" height="6" rx="2" fill="#7F7887"/>
  <path d="M498 238l26-8 6 14-26 8z" fill="#D9A86C"/><rect x="520" y="224" width="22" height="12" rx="3" fill="#8FD3B6"/>
  <!-- downstairs left: living room, homeowner with a floor plan -->
  <rect x="86" y="268" width="294" height="136" fill="#F6F0E8"/>
  <rect x="96" y="376" width="276" height="28" fill="#D9A86C"/>
  <path d="M96 376v28" stroke="#C4935A" stroke-width="2"/><path d="M142 376v28" stroke="#C4935A" stroke-width="2"/><path d="M188 376v28" stroke="#C4935A" stroke-width="2"/><path d="M234 376v28" stroke="#C4935A" stroke-width="2"/><path d="M280 376v28" stroke="#C4935A" stroke-width="2"/><path d="M326 376v28" stroke="#C4935A" stroke-width="2"/>
  <rect x="210" y="330" width="120" height="10" rx="3" fill="#9E6E3E"/>
  <rect x="220" y="340" width="8" height="36" fill="#9E6E3E"/><rect x="312" y="340" width="8" height="36" fill="#9E6E3E"/>
  <path d="M222 330l14-16h86l-10 16z" fill="#FFFFFF"/>
  <path d="M244 318h30v8h-30zM280 318h30v8h-30z" fill="none" stroke="#6B4F8A" stroke-width="2"/>
  <path d="M252 314l-4 14M296 314v14" stroke="#6B4F8A" stroke-width="1.5"/>
  <path d="M104 354h24l-4 22h-16z" fill="#F0A07E"/>
  <path d="M116 354c-4-16-14-24-24-26 2 12 12 22 24 26zM116 354c3-18 14-28 26-30-2 14-12 26-26 30zM116 354c0-14-1-26-3-34 7 8 8 22 3 34z" fill="#5FB592"/>
  <ellipse cx="176" cy="400" rx="30" ry="4.5" fill="#DCD2E6"/>
  <rect x="164" y="352" width="10" height="44" rx="4" fill="#3B2752"/>
  <rect x="178" y="352" width="10" height="44" rx="4" fill="#3B2752"/>
  <rect x="160" y="392" width="16" height="7" rx="3" fill="#2A2233"/>
  <rect x="177" y="392" width="16" height="7" rx="3" fill="#2A2233"/>
  <rect x="158" y="306" width="36" height="52" rx="13" fill="#F0A07E"/>
  <rect x="149" y="314" width="10" height="34" rx="5" fill="#F0A07E"/>
           <path d="M194 320l26 10" stroke="#F0A07E" stroke-width="10" stroke-linecap="round"/>
           <circle cx="222" cy="331" r="5" fill="#F3CDB3"/>
           <circle cx="154" cy="350" r="5" fill="#F3CDB3"/>
  <circle cx="176" cy="292" r="14" fill="#F3CDB3"/>
  <path d="M162 292a14 14 0 0 1 28 0c-6-6-22-7-28 0z" fill="#2A2233"/>
  <!-- downstairs right: kitchen cabinets going in -->
  <rect x="398" y="268" width="156" height="136" fill="#F6F0E8"/>
  <rect x="398" y="300" width="156" height="36" fill="#FFFFFF"/><path d="M424 300v36" stroke="#E6DCCB" stroke-width="1.5"/><path d="M450 300v36" stroke="#E6DCCB" stroke-width="1.5"/><path d="M476 300v36" stroke="#E6DCCB" stroke-width="1.5"/><path d="M502 300v36" stroke="#E6DCCB" stroke-width="1.5"/><path d="M528 300v36" stroke="#E6DCCB" stroke-width="1.5"/><path d="M398 318h156" stroke="#E6DCCB" stroke-width="1.5"/>
  <rect x="398" y="336" width="156" height="68" fill="#6B4F8A"/>
  <rect x="394" y="330" width="164" height="8" rx="2" fill="#E0CFA9"/>
  <path d="M450 336v68M502 336v68" stroke="#3B2752" stroke-width="2"/>
  <rect x="440" y="360" width="6" height="16" rx="3" fill="#F5D98B"/><rect x="492" y="360" width="6" height="16" rx="3" fill="#F5D98B"/>
  <rect x="406" y="272" width="60" height="24" fill="#6B4F8A" opacity=".35"/>
  <rect x="476" y="272" width="70" height="24" rx="2" fill="none" stroke="#6B4F8A" stroke-width="2" stroke-dasharray="5 4"/>
  <ellipse cx="320" cy="430" rx="280" ry="10" fill="#DCD2E6"/>
</svg>
